<svg id="Capa_1" data-name="Capa 1" xmlns="http://www.w3.org/2000/svg" viewBox="0 0 40 40"><title>Sin título-1</title><circle cx="27.48" cy="13.57" r="1.43"/><path d="M21.1,14a6,6,0,1,0,6,6A6,6,0,0,0,21.1,14Zm0,9.89A3.86,3.86,0,1,1,25,20,3.87,3.87,0,0,1,21.1,23.86Z"/><path d="M25.89,32.24H16.11a7.36,7.36,0,0,1-7.35-7.35V15.11a7.36,7.36,0,0,1,7.35-7.35h9.77a7.36,7.36,0,0,1,7.35,7.35v9.77A7.36,7.36,0,0,1,25.89,32.24ZM16.11,10.06a5.05,5.05,0,0,0-5,5v9.77a5.05,5.05,0,0,0,5,5h9.77a5.05,5.05,0,0,0,5-5V15.11a5.05,5.05,0,0,0-5-5H16.11Z"/></svg>