<svg id="Capa_1" data-name="Capa 1" xmlns="http://www.w3.org/2000/svg" viewBox="0 0 70 40"><defs><style>.cls-1{fill:#fff;}</style></defs><title>BOUTIQUE-SILLAS_lean_logo-cuadrado</title><rect x="-41.25" y="-12" width="155.5" height="64"/><g id="_Grupo_" data-name="&lt;Grupo&gt;"><g id="_Grupo_2" data-name="&lt;Grupo&gt;"><path class="cls-1" d="M13.69,18.08a0.24,0.24,0,0,1,.22-0.16,1,1,0,0,1,.36,0,0.81,0.81,0,0,1,.32.16,0.23,0.23,0,0,1,.1.24q-0.11.33-.43,1a13.27,13.27,0,0,1-.84,1.51,17.82,17.82,0,0,1-1.26,1.73,12.07,12.07,0,0,1-1.67,1.68,10.75,10.75,0,0,1-2.08,1.35,7.92,7.92,0,0,1-2.49.75A2.86,2.86,0,0,1,3.6,25.9a3.29,3.29,0,0,1-.91-3.12q0.12-.66.35-1.52c0.15-.57.33-1.19,0.53-1.86l0.61-2,0.54-1.72q0.26-.83.45-1.53T5.46,13a2.49,2.49,0,0,0,.08-0.73,0.57,0.57,0,0,1,.11-0.5,0.69,0.69,0,0,1,.42-0.19,1.2,1.2,0,0,1,.52.06,2.31,2.31,0,0,1,.57.27,2.34,2.34,0,0,1,.48.42,1,1,0,0,1,.25.52,2.6,2.6,0,0,1-.05.72q-0.08.49-.22,1.09T7.29,15.88c-0.12.43-.23,0.83-0.33,1.19s-0.2.67-.27,0.92-0.12.39-.14,0.42q0.3-.34.65-0.69a6.94,6.94,0,0,1,.72-0.64,5.38,5.38,0,0,1,.75-0.49,2.25,2.25,0,0,1,.75-0.25,1.58,1.58,0,0,1,1,.13A1.72,1.72,0,0,1,11,17a2.58,2.58,0,0,1,.34.78,7.2,7.2,0,0,1,.15.77,5.32,5.32,0,0,1-.16,2.17,7.77,7.77,0,0,1-1,2.2,12.73,12.73,0,0,0,1.32-1.45,17.35,17.35,0,0,0,1-1.44,12.12,12.12,0,0,0,.68-1.22A6.87,6.87,0,0,0,13.69,18.08Zm-7.81,7a1.43,1.43,0,0,0,.77-0.43,5.32,5.32,0,0,0,.76-1,9.69,9.69,0,0,0,.68-1.3,11.37,11.37,0,0,0,.52-1.46,10.14,10.14,0,0,0,.31-1.44,4.54,4.54,0,0,0,0-1.23c0-.17-0.08-0.24-0.16-0.23a1.58,1.58,0,0,0-.71.38,6.91,6.91,0,0,0-.86.85,12.21,12.21,0,0,0-.88,1.15,12.63,12.63,0,0,0-.77,1.27A7.53,7.53,0,0,0,5,22.88a2.34,2.34,0,0,0-.13,1,2.57,2.57,0,0,0,.1.44,1.49,1.49,0,0,0,.19.4,1,1,0,0,0,.29.28A0.56,0.56,0,0,0,5.88,25.06Z"/><path class="cls-1" d="M22.08,17a0.24,0.24,0,0,1,.22-0.17,0.69,0.69,0,0,1,.36,0,0.92,0.92,0,0,1,.3.2,0.26,0.26,0,0,1,.09.28c-0.05.16-.13,0.37-0.24,0.64s-0.24.57-.41,0.9a10.78,10.78,0,0,1-.6,1,8.5,8.5,0,0,1-.79,1,6.11,6.11,0,0,1-1,.87,3.79,3.79,0,0,1-1.18.57,6.73,6.73,0,0,1-1.37,1.83,3.2,3.2,0,0,1-1.76.88,2.65,2.65,0,0,1-1-.06,2.59,2.59,0,0,1-1-.48A3,3,0,0,1,13,23.58a3.79,3.79,0,0,1-.43-1.36,4.51,4.51,0,0,1,.08-1.58,9.17,9.17,0,0,1,.47-1.54,6,6,0,0,1,.63-1.19,1.1,1.1,0,0,1,.56-0.51,2,2,0,0,1,.35,0l0.37,0a7.25,7.25,0,0,1,.51-0.79A4.31,4.31,0,0,1,16.13,16a3.92,3.92,0,0,1,.71-0.5,2.26,2.26,0,0,1,.78-0.26,3.09,3.09,0,0,1,1,0,1.51,1.51,0,0,1,.66.29,1.32,1.32,0,0,1,.39.54,3,3,0,0,1,.19.72,8.88,8.88,0,0,1-.39,4.05,5.31,5.31,0,0,0,1-.95,10.68,10.68,0,0,0,.78-1.11,9.47,9.47,0,0,0,.56-1C21.91,17.38,22,17.13,22.08,17Zm-6.47,6.86a2,2,0,0,0,1-.43,3.72,3.72,0,0,0,.79-0.91,4.19,4.19,0,0,1-1.18-.32,4,4,0,0,1-1-.62,8.81,8.81,0,0,0-.21,1,2.93,2.93,0,0,0,0,.82,0.64,0.64,0,0,0,.18.4A0.55,0.55,0,0,0,15.61,23.83ZM17,20.62a1.07,1.07,0,0,0,.26.59,0.87,0.87,0,0,0,.67.23,10,10,0,0,0,.41-1.19,11.65,11.65,0,0,0,.27-1.19,9.19,9.19,0,0,0,.12-1.1,5,5,0,0,0,0-.9c-0.06-.42-0.14-0.62-0.24-0.6a0.94,0.94,0,0,0-.43.47A7.11,7.11,0,0,0,17.51,18a8.88,8.88,0,0,0-.41,1.35A3.62,3.62,0,0,0,17,20.62Z"/><path class="cls-1" d="M30.56,15.79a0.78,0.78,0,0,1,.33-0.42,0.5,0.5,0,0,1,.38-0.07,0.46,0.46,0,0,1,.28.24,0.68,0.68,0,0,1,0,.51l-0.1.33L31.1,17.5q-0.22.68-.51,1.44t-0.65,1.54a11.75,11.75,0,0,1-.76,1.41A5.24,5.24,0,0,1,28.31,23a1.78,1.78,0,0,1-1,.49,1.18,1.18,0,0,1-.67-0.12,2.25,2.25,0,0,1-.63-0.45,3.2,3.2,0,0,1-.49-0.63,1.78,1.78,0,0,1-.25-0.67,3.2,3.2,0,0,1,0-.69c-0.22.4-.45,0.79-0.68,1.16s-0.46.71-.68,1a4.85,4.85,0,0,1-.63.72,1.1,1.1,0,0,1-.54.3,1.21,1.21,0,0,1-.72-0.13,2.45,2.45,0,0,1-.65-0.48,3.22,3.22,0,0,1-.49-0.65,1.89,1.89,0,0,1-.24-0.65,3.46,3.46,0,0,1,0-.91,8,8,0,0,1,.2-1c0.1-.36.2-0.72,0.32-1.08s0.25-.72.38-1.08,0.21-.58.31-0.86,0.18-.56.26-0.81a6.41,6.41,0,0,0,.16-0.7,1.87,1.87,0,0,0,0-.55,0.29,0.29,0,0,1,.31-0.31,1.72,1.72,0,0,1,.79.07,2.56,2.56,0,0,1,.84.43,1.12,1.12,0,0,1,.46.77,1.64,1.64,0,0,1,0,.53c0,0.23-.12.49-0.2,0.79s-0.19.62-.31,1l-0.38,1.07-0.46,1.29q-0.23.64-.4,1.14c-0.11.33-.2,0.6-0.26,0.81a0.38,0.38,0,0,0,0,.3,0.79,0.79,0,0,0,.32-0.31c0.15-.2.32-0.45,0.51-0.75s0.4-.66.62-1.06l0.68-1.22q0.79-1.45,1.74-3.28l0.36-1.21A2.25,2.25,0,0,0,27,14.51c0-.17.07-0.26,0.28-0.27a1.75,1.75,0,0,1,.72.13,2.77,2.77,0,0,1,.76.44,1,1,0,0,1,.4.61,2.36,2.36,0,0,1-.15.83c-0.12.4-.27,0.87-0.44,1.41s-0.26.8-.39,1.23-0.25.84-.36,1.23-0.19.75-.25,1.09a2.64,2.64,0,0,0-.05.78c0,0.08,0,.12,0,0.12a0.91,0.91,0,0,0,.54-0.39,6.12,6.12,0,0,0,.56-0.9q0.28-.54.56-1.2c0.18-.44.35-0.88,0.51-1.31s0.29-.85.41-1.23,0.22-.7.31-0.94l0.1-.32v0Z"/><path class="cls-1" d="M38,11.35a0.65,0.65,0,0,1-.21.4,2.87,2.87,0,0,1-.73.57,7.59,7.59,0,0,1-1.33.59,10.35,10.35,0,0,1-2,.45l-0.2.66-0.22.67-0.6,1.92q-0.3,1-.52,1.83T31.89,20a3.84,3.84,0,0,0-.06,1.12c0,0.25.13,0.36,0.29,0.34A1.69,1.69,0,0,0,33,21a6.56,6.56,0,0,0,.9-1.06q0.44-.63.86-1.38c0.28-.5.52-1,0.74-1.45s0.4-.89.55-1.26,0.26-.65.32-0.83a0.25,0.25,0,0,1,.22-0.14,0.94,0.94,0,0,1,.36,0,0.86,0.86,0,0,1,.32.15,0.22,0.22,0,0,1,.1.23q-0.11.33-.37,1t-0.63,1.48q-0.38.82-.87,1.67A13.15,13.15,0,0,1,34.46,21a7,7,0,0,1-1.21,1.23,2.76,2.76,0,0,1-1.33.6,1.65,1.65,0,0,1-.67-0.08,2.49,2.49,0,0,1-.76-0.38,2.67,2.67,0,0,1-.65-0.69,2.44,2.44,0,0,1-.36-1,3.58,3.58,0,0,1,.07-1c0.08-.44.19-0.95,0.34-1.52s0.33-1.19.53-1.85l0.61-2,0.23-.75A9.27,9.27,0,0,1,30,13.43a6.86,6.86,0,0,1-1-.21A2.63,2.63,0,0,1,28.43,13a0.45,0.45,0,0,1-.23-0.23,0.59,0.59,0,0,1,0-.33,0.31,0.31,0,0,1,.2-0.15,1,1,0,0,1,.36,0l0.55,0,0.95,0.05q0.58,0,1.36,0Q32,11,32.26,10a4.49,4.49,0,0,0,.18-1.39c0-.17.07-0.25,0.28-0.26a2,2,0,0,1,.73.14,2.73,2.73,0,0,1,.77.44,1,1,0,0,1,.4.61,3.22,3.22,0,0,1-.08,1q-0.13.65-.38,1.49a12,12,0,0,0,1.63-.38q0.71-.22,1.15-0.41v0a2.61,2.61,0,0,1,.77-0.21A0.28,0.28,0,0,1,38,11.35Z"/><path class="cls-1" d="M41.13,14.28a0.25,0.25,0,0,1,.22-0.14,1,1,0,0,1,.36,0,0.83,0.83,0,0,1,.32.15,0.24,0.24,0,0,1,.11.24q-0.11.37-.36,1t-0.6,1.48q-0.35.81-.79,1.66a13.26,13.26,0,0,1-.94,1.57,6.69,6.69,0,0,1-1.06,1.21,2.23,2.23,0,0,1-1.16.57,1.62,1.62,0,0,1-1.35-.4,2.3,2.3,0,0,1-.7-1.47,3.25,3.25,0,0,1,0-.9c0.05-.37.14-0.77,0.25-1.21s0.24-.89.38-1.36l0.41-1.36q0.27-.85.45-1.48a2.71,2.71,0,0,0,.16-0.8q0-.25.28-0.27a1.76,1.76,0,0,1,.72.13,2.78,2.78,0,0,1,.76.44,1,1,0,0,1,.4.63,1.09,1.09,0,0,1,0,.32c0,0.15-.08.33-0.13,0.54s-0.12.43-.2,0.67l-0.22.71L38.05,17.5q-0.21.65-.37,1.25t-0.26,1.09a2.56,2.56,0,0,0-.05.76q0,0.14.06,0.13a1.27,1.27,0,0,0,.72-0.47,7.5,7.5,0,0,0,.77-1.05,15.45,15.45,0,0,0,.74-1.38q0.36-.75.65-1.45c0.2-.47.36-0.89,0.5-1.26s0.24-.65.3-0.83v0Zm-3-2.61a0.46,0.46,0,0,1-.44-0.16A1,1,0,0,1,37.46,11a2.49,2.49,0,0,1,0-.7,3.86,3.86,0,0,1,.19-0.77A2.5,2.5,0,0,1,38,8.89a0.66,0.66,0,0,1,.43-0.3,1.92,1.92,0,0,1,.58,0,1.53,1.53,0,0,1,.52.18,1.19,1.19,0,0,1,.59.9,1.2,1.2,0,0,1-.09.6,1.87,1.87,0,0,1-.39.6A2.6,2.6,0,0,1,38.11,11.66Z"/><path class="cls-1" d="M49.81,13.17A0.25,0.25,0,0,1,50,13a1,1,0,0,1,.37,0,0.87,0.87,0,0,1,.32.15,0.2,0.2,0,0,1,.09.23,7.61,7.61,0,0,1-.41.93q-0.31.62-.74,1.41t-0.95,1.68l-1,1.74L46,22.09q-0.31.89-.59,1.74T44.91,25.4c-0.14.48-.24,0.9-0.31,1.26a2.7,2.7,0,0,0-.07.82,0.56,0.56,0,0,0,0,.12,0.56,0.56,0,0,1,0,.11,0.61,0.61,0,0,0,0,.11h0l0.13,0.33a0.5,0.5,0,0,1,0,.27,0.35,0.35,0,0,1-.13.21,0.74,0.74,0,0,1-.36.12,1.48,1.48,0,0,1-.64-0.06A2,2,0,0,1,43,28.35a2.21,2.21,0,0,1-.52-0.6,2.14,2.14,0,0,1-.29-0.84,3.71,3.71,0,0,1,.06-1.06,15.19,15.19,0,0,1,.35-1.51q0.24-.84.54-1.8t0.63-2c0.05-.18.08-0.26,0.08-0.26l0,0.07,0,0.08,0.08-.27a8.88,8.88,0,0,1-.75.77,1.38,1.38,0,0,1-.67.39,1.39,1.39,0,0,1-1.06-.22,2.58,2.58,0,0,1-.69-0.77,3.71,3.71,0,0,1-.4-1,8.31,8.31,0,0,1-.17-0.83,6,6,0,0,1,.13-2.19,8.15,8.15,0,0,1,.86-2.2,6.45,6.45,0,0,1,1.45-1.76,3.69,3.69,0,0,1,1.91-.88,2.71,2.71,0,0,1,1,0,2.05,2.05,0,0,1,.73.33,1.89,1.89,0,0,1,.48.51A2.52,2.52,0,0,1,47,13a2.18,2.18,0,0,1,.11.52,1,1,0,0,1,0,.34,0.17,0.17,0,0,1-.18.14,0.91,0.91,0,0,1-.31,0,1.13,1.13,0,0,1-.28-0.11,0.17,0.17,0,0,1-.11-0.12,0.43,0.43,0,0,0,0-.17,0.61,0.61,0,0,0-.13-0.26,0.81,0.81,0,0,0-.33-0.22,1.15,1.15,0,0,0-.58,0,1.31,1.31,0,0,0-.79.48,5,5,0,0,0-.69,1.07A9.5,9.5,0,0,0,43.16,16q-0.24.77-.4,1.52a10.82,10.82,0,0,0-.21,1.4,5.1,5.1,0,0,0,0,1,0.31,0.31,0,0,1,0,.21A1.52,1.52,0,0,0,43,19.71c0.21-.29.44-0.64,0.7-1.06s0.52-.87.79-1.35,0.51-.94.73-1.37l0,0.07c0.07-.32.13-0.61,0.17-0.87a2.31,2.31,0,0,0,0-.63q0-.25.32-0.27a2.3,2.3,0,0,1,.81.13,3.25,3.25,0,0,1,.85.42,0.92,0.92,0,0,1,.44.6,3.22,3.22,0,0,1,0,.91c-0.06.37-.15,0.79-0.27,1.26l0.76-1.31q0.39-.67.71-1.27c0.22-.4.4-0.76,0.56-1.07A5.39,5.39,0,0,0,49.81,13.17Z"/><path class="cls-1" d="M58.22,12a0.77,0.77,0,0,1,.32-0.42,0.5,0.5,0,0,1,.38-0.07,0.46,0.46,0,0,1,.28.24,0.68,0.68,0,0,1,0,.51l-0.1.33-0.37,1.13c-0.14.45-.32,0.93-0.51,1.44s-0.41,1-.65,1.54a11.75,11.75,0,0,1-.76,1.41A5.24,5.24,0,0,1,56,19.17a1.77,1.77,0,0,1-1,.49,1.18,1.18,0,0,1-.67-0.12,2.24,2.24,0,0,1-.63-0.45,3.19,3.19,0,0,1-.49-0.63A1.78,1.78,0,0,1,53,17.79a3.2,3.2,0,0,1,0-.69c-0.22.4-.45,0.79-0.68,1.16s-0.46.71-.68,1A4.82,4.82,0,0,1,51,20a1.09,1.09,0,0,1-.54.3,1.2,1.2,0,0,1-.72-0.13,2.43,2.43,0,0,1-.65-0.48A3.22,3.22,0,0,1,48.59,19a1.89,1.89,0,0,1-.24-0.65,3.46,3.46,0,0,1,0-.91,8,8,0,0,1,.2-1c0.1-.36.2-0.72,0.32-1.08s0.25-.72.38-1.08,0.21-.58.31-0.86,0.19-.56.26-0.81a6.41,6.41,0,0,0,.16-0.7,1.87,1.87,0,0,0,0-.55A0.29,0.29,0,0,1,50.31,11a1.73,1.73,0,0,1,.79.07,2.55,2.55,0,0,1,.84.43,1.11,1.11,0,0,1,.46.77,1.68,1.68,0,0,1,0,.53c0,0.23-.12.49-0.2,0.79s-0.19.62-.31,1l-0.38,1.07L51,17q-0.23.64-.4,1.14c-0.11.33-.2,0.6-0.26,0.81a0.38,0.38,0,0,0,0,.3,0.79,0.79,0,0,0,.32-0.31c0.15-.2.32-0.45,0.51-0.75s0.4-.66.62-1.06l0.68-1.22q0.79-1.45,1.74-3.28l0.36-1.21a2.26,2.26,0,0,0,.13-0.66c0-.17.07-0.26,0.28-0.27a1.75,1.75,0,0,1,.72.13,2.77,2.77,0,0,1,.76.44,1,1,0,0,1,.4.61,2.36,2.36,0,0,1-.15.83c-0.12.4-.27,0.87-0.44,1.41s-0.26.8-.39,1.23-0.25.84-.36,1.23-0.19.75-.25,1.09a2.63,2.63,0,0,0-.05.78c0,0.08,0,.12,0,0.12a0.91,0.91,0,0,0,.54-0.39,6,6,0,0,0,.56-0.9q0.28-.54.56-1.2t0.51-1.31c0.15-.44.29-0.85,0.41-1.23l0.31-.94,0.1-.32v0Z"/><path class="cls-1" d="M65.73,11A0.25,0.25,0,0,1,66,10.82a0.92,0.92,0,0,1,.36,0,0.81,0.81,0,0,1,.32.16,0.24,0.24,0,0,1,.1.24l-0.35,1q-0.24.66-.61,1.47T64.9,15.38A10.31,10.31,0,0,1,63.75,17a7.21,7.21,0,0,1-1.44,1.27,4.07,4.07,0,0,1-1.71.65,2.65,2.65,0,0,1-1.39-.14,3.16,3.16,0,0,1-1.05-.7,3.56,3.56,0,0,1-.71-1,4,4,0,0,1-.34-1.12,4.87,4.87,0,0,1,.24-2.24,7,7,0,0,1,1.14-2.11,7.45,7.45,0,0,1,1.77-1.64A5.1,5.1,0,0,1,62.4,9.1a1.44,1.44,0,0,1,1.1.18,1.2,1.2,0,0,1,.44.83,2.54,2.54,0,0,1-.08,1,6.51,6.51,0,0,1-.42,1.17,10.21,10.21,0,0,1-.68,1.23,9.9,9.9,0,0,1-.86,1.14,7.34,7.34,0,0,1-1,.92,3.67,3.67,0,0,1-1,.57,2.81,2.81,0,0,0,0,.6,1.23,1.23,0,0,0,.21.57,0.45,0.45,0,0,0,.46.17,3,3,0,0,0,1.31-.54,6.38,6.38,0,0,0,1.16-1.07,10.82,10.82,0,0,0,1-1.37q0.45-.74.78-1.43t0.56-1.24Q65.64,11.24,65.73,11Zm-3-.79a1.36,1.36,0,0,0-.77.48,5.36,5.36,0,0,0-.75,1.08,10.57,10.57,0,0,0-.63,1.43,12.84,12.84,0,0,0-.45,1.54,5.09,5.09,0,0,0,1-1,9.75,9.75,0,0,0,.89-1.27,7.27,7.27,0,0,0,.6-1.26,2.18,2.18,0,0,0,.17-0.95A0.08,0.08,0,0,0,62.76,10.19Z"/></g><g id="_Grupo_3" data-name="&lt;Grupo&gt;"><path id="_Trazado_" data-name="&lt;Trazado&gt;" class="cls-1" d="M32.9,28.76h4.23l0.46-2.47v0A2.47,2.47,0,0,0,35,24.56a2.53,2.53,0,0,0-2.62,1.59v0Z"/><path id="_Trazado_2" data-name="&lt;Trazado&gt;" class="cls-1" d="M39.69,26.23a1.17,1.17,0,0,0-1-.54,1,1,0,0,0-1,.92l-0.44,2.33H32.76l-0.44-2.32a1,1,0,0,0-1-.92,1.17,1.17,0,0,0-1,.54,0.88,0.88,0,0,0-.12.75,1.66,1.66,0,0,0,.83.84,6.57,6.57,0,0,0,.89,3.24h0.31v0.5H33v-0.5H37v0.5h0.81v-0.5H38.1A6.58,6.58,0,0,0,39,27.83,1.65,1.65,0,0,0,39.81,27,0.88,0.88,0,0,0,39.69,26.23Z"/></g><circle id="_Trazado_3" data-name="&lt;Trazado&gt;" class="cls-1" cx="34.26" cy="27.06" r="0.12"/><circle id="_Trazado_4" data-name="&lt;Trazado&gt;" class="cls-1" cx="35.79" cy="27.06" r="0.12"/></g></svg>