<svg id="Capa_1" data-name="Capa 1" xmlns="http://www.w3.org/2000/svg" viewBox="0 0 40 40"><defs><style>.cls-1{fill-rule:evenodd;}</style></defs><title>Sin título-1</title><path class="cls-1" d="M17.88,23.92l-0.06.2c-0.95,3.71-1.05,4.53-2,6.25a19.28,19.28,0,0,1-1.56,2.33,0.27,0.27,0,0,1-.26.17,0.25,0.25,0,0,1-.17-0.27,19.93,19.93,0,0,1-.2-3.39c0-1.48.23-2,2.14-10a0.56,0.56,0,0,0,0-.33,5.65,5.65,0,0,1-.15-3.75c0.86-2.74,4-2.95,4.51-.69,0.33,1.4-.55,3.23-1.23,5.93-0.56,2.23,2.06,3.82,4.31,2.19,2.07-1.5,2.87-5.1,2.72-7.65C25.56,9.8,20,8.7,16.45,10.34c-4.05,1.87-5,6.9-3.15,9.2a0.86,0.86,0,0,1,.33.77c-0.12.46-.22,0.92-0.35,1.38a0.49,0.49,0,0,1-.72.32,4.15,4.15,0,0,1-1.69-1.27c-1.55-1.93-2-5.73.06-9A10.76,10.76,0,0,1,21.31,7.2a8.79,8.79,0,0,1,8.09,7.26A12.09,12.09,0,0,1,27.17,23c-2.63,3.27-6.9,3.48-8.87,1.48C18.15,24.29,18,24.11,17.88,23.92Z"/></svg>