<svg id="Capa_1" data-name="Capa 1" xmlns="http://www.w3.org/2000/svg" viewBox="0 0 40 40"><title>logos telf mail</title><g id="Correo_electrónico" data-name="Correo electrónico"><g id="Teléfono"><path d="M23.57,10.49H17.4V8.7a1.39,1.39,0,0,0-2.78,0v2.23a4,4,0,0,0-2.16,3.52v7.41a39.73,39.73,0,0,0,.79,7.4A5,5,0,0,0,18,32.69h4a5,5,0,0,0,4.76-3.53,41.31,41.31,0,0,0,.79-7.49V14.45A4,4,0,0,0,23.57,10.49ZM20,29.67a1.56,1.56,0,1,1,1.56-1.56A1.56,1.56,0,0,1,20,29.67Zm4.88-10a0.8,0.8,0,0,1-.79.79H15.92a0.8,0.8,0,0,1-.79-0.79v-5a0.8,0.8,0,0,1,.79-0.79h8.17a0.79,0.79,0,0,1,.79.79v5Z"/></g></g></svg>