<svg id="Capa_1" data-name="Capa 1" xmlns="http://www.w3.org/2000/svg" viewBox="0 0 40 40"><defs><style>.cls-1{fill-rule:evenodd;}</style></defs><title>Sin título-1</title><path d="M8.47,32.14l1.74-6.5A12,12,0,1,1,15,30.39ZM15.33,28l0.41,0.25A9.76,9.76,0,1,0,12.4,24.9l0.25,0.41-1,3.63Z"/><path class="cls-1" d="M25.17,21.52a2,2,0,0,0-1.72-.39,3.74,3.74,0,0,0-1,1.24,0.43,0.43,0,0,1-.55.12A7.78,7.78,0,0,1,18,19.16a0.48,0.48,0,0,1,.06-0.65,2.63,2.63,0,0,0,.71-1.15A2.51,2.51,0,0,0,18.44,16a3.21,3.21,0,0,0-1-1.51,1.37,1.37,0,0,0-1.49.22,3,3,0,0,0-1,2.4,3.4,3.4,0,0,0,.09.76,6.3,6.3,0,0,0,.73,1.68,13.29,13.29,0,0,0,.76,1.16,11.75,11.75,0,0,0,3.3,3.07,10,10,0,0,0,2.06,1,4.57,4.57,0,0,0,2.4.38,2.9,2.9,0,0,0,2.17-1.62,1.4,1.4,0,0,0,.1-0.82A2.51,2.51,0,0,0,25.17,21.52Z"/></svg>